<?xml version="1.0" standalone="no"?><!DOCTYPE svg PUBLIC "-//W3C//DTD SVG 1.1//EN" "http://www.w3.org/Graphics/SVG/1.1/DTD/svg11.dtd"><svg t="1780328578457" class="icon" viewBox="0 0 1024 1024" version="1.1" xmlns="http://www.w3.org/2000/svg" p-id="7531" xmlns:xlink="http://www.w3.org/1999/xlink" width="200" height="200"><path d="M841.472 851.712H172.8c-10.496 0-20.224-5.376-25.856-14.08-5.632-8.96-6.4-19.968-2.048-29.44l38.144-82.176c19.968-43.008 30.464-91.136 30.464-138.496v-158.976c0-161.792 131.584-293.376 293.376-293.376 161.792 0 293.376 131.584 293.376 293.376v162.304c0 45.568 9.984 91.392 29.184 132.608l39.424 84.992c4.352 9.472 3.584 20.736-2.048 29.44-5.12 8.448-14.848 13.824-25.344 13.824z m-620.544-61.44h572.16l-19.2-41.472c-22.784-49.152-34.816-103.936-34.816-158.464v-162.304c0-128-104.192-231.936-231.936-231.936-128 0-231.936 104.192-231.936 231.936v158.976c0 56.32-12.544 113.152-36.352 164.352l-17.92 38.912z" fill="#040000" p-id="7532"></path><path d="M507.136 193.792c-16.896 0-30.72-13.824-30.72-30.72V83.968c0-16.896 13.824-30.72 30.72-30.72s30.72 13.824 30.72 30.72v78.848c0 17.152-13.824 30.976-30.72 30.976zM507.136 984.576c-82.944 0-150.272-67.328-150.272-150.272 0-16.896 13.824-30.72 30.72-30.72s30.72 13.824 30.72 30.72c0 49.152 39.936 88.832 88.832 88.832 49.152 0 88.832-39.936 88.832-88.832 0-16.896 13.824-30.72 30.72-30.72s30.72 13.824 30.72 30.72c0 82.688-67.328 150.272-150.272 150.272z" fill="#040000" p-id="7533"></path></svg>